<svg width="121" height="48" viewBox="0 0 121 48" fill="none" xmlns="http://www.w3.org/2000/svg">
<g clip-path="url(#clip0_95_1704)">
<path d="M97.2831 42.6754H98.4563V47.0086H100.812V48.0093H97.2739L97.2831 42.6754Z" fill="white"/>
<path d="M106.853 47.0831H104.368L104.019 48.014H102.717L104.87 42.6894H106.356L108.495 48.014H107.198L106.853 47.0831ZM104.686 46.101H106.526L105.606 43.6575L104.686 46.101Z" fill="white"/>
<path d="M110.681 42.6754H113.607C114.665 42.6754 115.208 43.3224 115.208 44.0345C115.219 44.3201 115.129 44.6004 114.953 44.8242C114.778 45.0481 114.528 45.2006 114.251 45.2539C114.553 45.309 114.826 45.4706 115.021 45.71C115.217 45.9495 115.322 46.2513 115.318 46.5618C115.318 47.3623 114.757 48 113.699 48H110.681V42.6754ZM113.349 44.8164C113.431 44.8269 113.515 44.8196 113.594 44.7949C113.673 44.7703 113.746 44.7288 113.809 44.6734C113.871 44.6179 113.921 44.5497 113.955 44.4732C113.989 44.3968 114.006 44.3139 114.006 44.23C114.006 44.1461 113.989 44.0632 113.955 43.9868C113.921 43.9103 113.871 43.8421 113.809 43.7866C113.746 43.7311 113.673 43.6897 113.594 43.665C113.515 43.6404 113.431 43.633 113.349 43.6435H111.863V44.8164H113.349ZM113.39 47.0319C113.85 47.0319 114.108 46.7852 114.108 46.4036C114.106 46.3132 114.086 46.2243 114.048 46.1426C114.009 46.0609 113.955 45.9883 113.887 45.9294C113.819 45.8706 113.74 45.8268 113.654 45.8011C113.569 45.7753 113.479 45.7681 113.39 45.7799H111.863V47.0319H113.39Z" fill="white"/>
<path d="M92.917 42.6289H0.478479C0.214222 42.6289 0 42.8456 0 43.113V47.4834C0 47.7507 0.214222 47.9674 0.478479 47.9674H92.917C93.1812 47.9674 93.3954 47.7507 93.3954 47.4834V43.113C93.3954 42.8456 93.1812 42.6289 92.917 42.6289Z" fill="white"/>
<path d="M9.23833 21.0422H7.19559L4.60076 37.6721H0L5.89817 0.0930786H17.4829C17.7209 0.141332 17.9458 0.241216 18.1419 0.385847C18.3381 0.530479 18.501 0.716419 18.6193 0.930856C18.9038 1.42704 19.0033 2.00984 18.8999 2.57383L16.3925 18.5056C16.3315 18.9693 16.1645 19.4124 15.9048 19.7995C15.6594 20.1773 15.3341 20.4952 14.9525 20.7303C14.6333 20.898 14.2877 21.0083 13.9311 21.0561L13.6965 37.686H9.00829L9.23833 21.0422ZM12.0724 16.5368L13.9771 4.51003H9.79502L7.8949 16.5368H12.0724Z" fill="white"/>
<path d="M39.677 0.847086C40.0093 1.37636 40.134 2.01217 40.0267 2.62969L34.9152 35.182C34.8327 35.8531 34.5259 36.4755 34.0457 36.946C33.8355 37.1704 33.5832 37.3502 33.3036 37.4748C33.0239 37.5995 32.7225 37.6665 32.417 37.6721H23.3075C23.0264 37.6835 22.7471 37.623 22.4953 37.496C22.2436 37.3691 22.0276 37.1799 21.8675 36.946C21.5198 36.43 21.3875 35.7961 21.4994 35.182L26.6062 2.62969C26.699 1.94543 27.0244 1.31518 27.5264 0.847086C27.7427 0.614841 28.0027 0.428545 28.291 0.299084C28.5793 0.169623 28.8903 0.0995927 29.2057 0.0930859H38.306C38.58 0.0849295 38.8512 0.150416 39.0921 0.28287C39.3329 0.415324 39.5348 0.61001 39.677 0.847086ZM30.9678 4.51004L26.4682 33.3017H30.6457L35.1498 4.51004H30.9678Z" fill="white"/>
<path d="M51.7723 4.51003L47.2682 33.3017H51.4457L53.2584 21.7496H50.6544L51.3997 16.8626H58.6413L55.7658 35.182C55.6771 35.8541 55.3657 36.476 54.8825 36.946C54.6728 37.1698 54.4213 37.3493 54.1425 37.4739C53.8637 37.5986 53.5631 37.6659 53.2584 37.6721H44.1075C43.8357 37.678 43.5667 37.6146 43.3255 37.4877C43.0843 37.3608 42.8786 37.1745 42.7272 36.946C42.3706 36.4337 42.2269 35.8003 42.327 35.182L47.4338 2.62968C47.538 1.94242 47.8611 1.30835 48.354 0.823804C48.5665 0.595776 48.8223 0.413513 49.1061 0.287947C49.3899 0.162381 49.6959 0.0960987 50.0056 0.093076H59.152C59.4275 0.0832488 59.7007 0.147936 59.9433 0.280471C60.1859 0.413006 60.3892 0.608594 60.5322 0.847076C60.8645 1.37635 60.9892 2.01216 60.8818 2.62968L58.9771 14.703H54.3258L55.9498 4.51003H51.7723Z" fill="white"/>
<path d="M75.7975 36.8483C75.3512 37.3092 74.7422 37.572 74.1044 37.579H65.0501C64.7654 37.59 64.4825 37.5289 64.227 37.4013C63.9715 37.2737 63.7516 37.0836 63.5871 36.8483C63.4086 36.5969 63.2852 36.3101 63.2249 36.0067C63.1646 35.7033 63.1689 35.3905 63.2374 35.0889L68.717 0H73.4097L68.2063 33.2551H72.347L77.5412 0H82.2294L76.7499 35.0889C76.6323 35.7653 76.2976 36.3837 75.7975 36.8483Z" fill="white"/>
<path d="M97.8766 16.6299L97.1359 21.2842H90.9111L89.0708 33.0736H95.291L94.5963 37.5836H83.7615L89.6597 0H100.476L99.7813 4.51004H93.5611L91.6564 16.6113L97.8766 16.6299Z" fill="white"/>
<path d="M111.854 4.51004L110.041 15.8759H116.942C117.459 15.9667 117.923 16.2529 118.24 16.6764C118.386 16.8854 118.488 17.1226 118.539 17.3733C118.591 17.624 118.59 17.8827 118.539 18.1332L115.847 35.1355C115.756 35.7495 115.48 36.3201 115.056 36.7691C114.675 37.2128 114.146 37.498 113.57 37.5697V37.6162H104.193C103.959 37.6277 103.726 37.5874 103.509 37.4982C103.292 37.4089 103.097 37.2729 102.937 37.0996C102.694 36.8407 102.516 36.5259 102.419 36.1822C102.322 35.8385 102.309 35.4761 102.381 35.1262L103.867 25.8175H108.509L107.35 33.1434H111.49L113.441 20.6512C112.7 20.6512 111.513 20.6512 109.889 20.6512C108.265 20.6512 107.05 20.6512 106.245 20.6512C106.015 20.5487 105.796 20.4224 105.592 20.2742C105.356 20.0491 105.181 19.7667 105.084 19.4539C104.986 19.141 104.97 18.8082 105.035 18.487L107.497 2.56453C107.598 2.10826 107.788 1.67658 108.053 1.2939C108.26 0.915456 108.561 0.599071 108.928 0.377001C109.278 0.164629 109.678 0.0505659 110.087 0.0465442H119.187C119.465 0.0395504 119.74 0.102707 119.987 0.230298C120.235 0.357889 120.447 0.545885 120.604 0.777272C120.784 1.02803 120.908 1.31491 120.968 1.61846C121.029 1.92201 121.024 2.23514 120.954 2.53661L119.749 10.4769H115.056L115.976 4.51004H111.854Z" fill="white"/>
</g>
<defs>
<clipPath id="clip0_95_1704">
<rect width="121" height="48" fill="white"/>
</clipPath>
</defs>
</svg>
